<svg width="110" height="24" viewBox="0 0 110 24" fill="none" xmlns="http://www.w3.org/2000/svg">
<g clip-path="url(#clip0_1194_2276)">
<path d="M4.78261 6.67432H0V11.4438H4.78261V6.67432Z" fill="white"/>
<path d="M18.1674 6.67432H13.3848V11.4438H18.1674V6.67432Z" fill="white"/>
<path d="M11.475 0H6.69238V18.1333H11.475V0Z" fill="white"/>
<path d="M25.8232 0H38.2611V2.88055H29.2799V7.65H37.3141V10.5306H29.2799V18.1176H25.8232V0Z" fill="white"/>
<path d="M40.1865 0H43.3118V18.1333H40.1865V0Z" fill="white"/>
<path d="M45.1113 14.3713C45.1113 11.5852 47.3368 10.6092 49.8623 10.4361L52.814 10.2315C53.6032 10.1842 53.9346 9.85369 53.9346 9.11387C53.9346 7.90184 52.956 7.05184 51.3302 7.05184C49.6255 7.05184 48.789 7.94906 48.4891 9.00369L45.4901 8.62591C45.7584 6.42221 47.8262 4.51758 51.3302 4.51758C54.8028 4.51758 57.202 6.31202 57.202 9.36572V18.1176H53.982V16.1028H53.8557C53.5085 17.2676 51.9932 18.4796 49.736 18.4796C47.1159 18.4954 45.1113 16.937 45.1113 14.3713ZM50.6042 16.1185C52.2773 16.1185 53.8873 14.9222 53.8873 12.7657V12.1361C53.7768 12.1833 53.5716 12.262 53.177 12.2935L50.6357 12.4981C49.5151 12.5768 48.4102 13.0491 48.4102 14.2768C48.4102 15.3944 49.3099 16.1185 50.6042 16.1185Z" fill="white"/>
<path d="M60.1855 14.1039V7.42984H57.8652V4.89558H59.8698C60.075 4.89558 60.1539 4.76965 60.1539 4.58076V1.43262H63.3581L63.3897 4.89558H67.4304V7.42984H63.3897V13.8835C63.3897 14.8122 63.7843 15.4734 64.8734 15.4734H67.4304V18.1178H64.3999C61.6534 18.1335 60.1855 16.6382 60.1855 14.1039Z" fill="white"/>
<path d="M82.7404 11.5381C82.7404 15.615 80.1676 18.3696 76.7108 18.3696C74.4221 18.3696 73.0962 17.252 72.4964 16.1501H72.3702V23.3751H69.166V4.89552H72.3702V6.84737H72.4964C73.112 5.72978 74.4537 4.62793 76.695 4.62793C80.136 4.62793 82.7404 7.42978 82.7404 11.5381ZM75.9216 15.7251C77.942 15.7251 79.552 14.0881 79.552 11.5224C79.552 8.95663 77.9262 7.28811 75.9216 7.28811C73.9012 7.28811 72.3386 8.90941 72.3386 11.4909C72.3386 14.0724 73.8855 15.7251 75.9216 15.7251Z" fill="white"/>
<path d="M83.5928 14.3713C83.5928 11.5852 85.8184 10.6092 88.3439 10.4361L91.2955 10.2315C92.0847 10.1842 92.4162 9.85369 92.4162 9.11387C92.4162 7.90184 91.4376 7.05184 89.8118 7.05184C88.1071 7.05184 87.2706 7.94906 86.9707 9.00369L83.9717 8.62591C84.24 6.42221 86.3077 4.51758 89.8118 4.51758C93.2843 4.51758 95.6835 6.31202 95.6835 9.36572V18.1176H92.4793V16.1028H92.3531C92.0058 17.2676 90.4905 18.4796 88.2334 18.4796C85.5817 18.4954 83.5928 16.937 83.5928 14.3713ZM89.0857 16.1185C90.7589 16.1185 92.3689 14.9222 92.3689 12.7657V12.1361C92.2584 12.1833 92.0532 12.262 91.6586 12.2935L89.1173 12.4981C87.9966 12.5768 86.8917 13.0491 86.8917 14.2768C86.876 15.3944 87.7914 16.1185 89.0857 16.1185Z" fill="white"/>
<path d="M96.6149 20.6675H99.2035C100.561 20.5888 100.829 19.8647 101.193 18.8888L101.429 18.3064L96.0625 4.86377H99.4876L102.945 14.5443H103.071L106.386 4.86377L110 4.89525L104.049 19.9749C103.339 21.7536 101.95 23.3749 99.677 23.3749H96.6149V20.6675Z" fill="white"/>
</g>
<defs>
<clipPath id="clip0_1194_2276">
<rect width="110" height="24" fill="white"/>
</clipPath>
</defs>
</svg>
