<svg width="113" height="27" viewBox="0 0 113 27" fill="none" xmlns="http://www.w3.org/2000/svg">
<g clip-path="url(#clip0_1057_2383)">
<path d="M26.5127 19.726V24.5226C26.5127 25.5849 25.6516 26.446 24.5893 26.446H21.0475C19.9852 26.446 19.1241 25.5849 19.1241 24.5226V13.6653C19.1241 13.383 18.8627 13.1733 18.5871 13.2342C18.506 13.2522 18.4316 13.2927 18.3725 13.3511L6.6738 24.8937C5.9248 25.6326 4.72118 25.6327 3.97209 24.8938L1.67286 22.6256C0.920402 21.8833 0.907949 20.6728 1.64501 19.9151L10.7318 10.5745C11.9177 9.35544 11.0539 7.30994 9.35311 7.30994H1.87652C0.834441 7.27622 0 6.42085 0 5.37055V1.94034C0 0.868687 0.868773 0 1.94043 0H20.614C21.1207 0 21.607 0.199941 21.9672 0.556496L25.3448 3.90014C26.1052 4.65286 26.1051 5.88147 25.3446 6.6341L20.6488 11.2814C19.8365 12.0853 19.9002 13.4159 20.7855 14.1385L25.8056 18.2359C26.2531 18.6012 26.5127 19.1483 26.5127 19.726Z" fill="#BEF300"/>
<path d="M42.0738 6.17626V12.0945H40.7379L40.303 10.9295C40.0855 11.0745 39.8474 11.2246 39.5885 11.3799C39.3296 11.5249 39.0293 11.6647 38.6875 11.7993C38.3561 11.934 37.973 12.0427 37.5381 12.1255C37.1135 12.2084 36.6268 12.2498 36.0779 12.2498C35.6016 12.2498 35.1097 12.2084 34.6022 12.1255C34.0948 12.0427 33.6029 11.9081 33.1266 11.7217C32.6606 11.5353 32.2153 11.2919 31.7907 10.9916C31.3765 10.6809 31.014 10.3081 30.7034 9.87321C30.3927 9.43827 30.1442 8.93085 29.9578 8.35093C29.7817 7.76066 29.6937 7.09273 29.6937 6.34713C29.6937 5.59117 29.8128 4.85592 30.051 4.14138C30.2891 3.42685 30.6619 2.79516 31.1694 2.24631C31.6768 1.68711 32.3292 1.24182 33.1266 0.910438C33.924 0.568703 34.887 0.397835 36.0158 0.397835C36.6682 0.397835 37.3206 0.465147 37.973 0.59977C38.6254 0.724037 39.226 0.936327 39.7749 1.23664C40.3237 1.53695 40.7949 1.93046 41.1884 2.41718C41.5923 2.89353 41.8615 3.48898 41.9961 4.20352H39.7438C39.6817 4.05854 39.5833 3.87732 39.4487 3.65985C39.3244 3.44238 39.1328 3.23527 38.8739 3.03851C38.6254 2.8314 38.294 2.65536 37.8798 2.51038C37.4656 2.3654 36.9323 2.29291 36.2799 2.29291C35.3893 2.29291 34.6592 2.42753 34.0896 2.69678C33.5304 2.95567 33.0852 3.28705 32.7538 3.69092C32.4327 4.08443 32.2101 4.51419 32.0858 4.98019C31.9616 5.43583 31.8994 5.86041 31.8994 6.25393C31.8994 6.92704 32.003 7.51731 32.2101 8.02473C32.4276 8.5218 32.7227 8.9412 33.0955 9.28294C33.4683 9.61432 33.9084 9.86803 34.4158 10.0441C34.9336 10.2098 35.4928 10.2926 36.0935 10.2926C37.1911 10.2926 38.0507 10.101 38.672 9.71787C39.2933 9.33472 39.7386 8.74445 40.0079 7.94707H36.0469V6.17626H42.0738ZM44.2279 0.677437H51.0159C51.6787 0.677437 52.2897 0.724037 52.8489 0.817237C53.4184 0.910438 53.9052 1.0813 54.309 1.32984C54.7232 1.57837 55.0443 1.92011 55.2721 2.35504C55.4999 2.78998 55.6138 3.35436 55.6138 4.04818C55.6138 4.56596 55.5258 5.02679 55.3498 5.43066C55.1841 5.83452 54.9563 6.17626 54.6663 6.45586C54.3763 6.73546 54.0398 6.95293 53.6566 7.10826C53.2735 7.2636 52.8748 7.35162 52.4606 7.37233L55.9245 11.9702H53.2062L49.9286 7.52766H46.4336V11.9702H44.2279V0.677437ZM50.6897 5.69472C51.135 5.69472 51.5285 5.67401 51.8703 5.63259C52.212 5.59117 52.4968 5.5135 52.7246 5.39959C52.9524 5.28568 53.1233 5.12517 53.2372 4.91805C53.3511 4.70059 53.4081 4.42616 53.4081 4.09478C53.4081 3.7634 53.3511 3.49416 53.2372 3.28705C53.1233 3.07994 52.9524 2.91942 52.7246 2.80551C52.4968 2.6916 52.212 2.61393 51.8703 2.57251C51.5285 2.53109 51.135 2.51038 50.6897 2.51038H46.4336V5.69472H50.6897ZM57.3019 6.40926C57.3019 5.63259 57.4158 4.88699 57.6436 4.17245C57.8818 3.44756 58.2649 2.80551 58.7931 2.24631C59.3316 1.68711 60.0254 1.24182 60.8746 0.910438C61.7341 0.568703 62.7852 0.397835 64.0278 0.397835C65.2705 0.397835 66.3164 0.568703 67.1656 0.910438C68.0251 1.24182 68.7189 1.68711 69.2471 2.24631C69.7855 2.80551 70.1687 3.44756 70.3965 4.17245C70.6347 4.88699 70.7538 5.63259 70.7538 6.40926C70.7538 6.99953 70.6502 7.6364 70.4431 8.31987C70.2464 8.99298 69.8943 9.62467 69.3869 10.2149C68.8898 10.7949 68.2063 11.2816 67.3364 11.6751C66.4666 12.0582 65.3637 12.2498 64.0278 12.2498C62.692 12.2498 61.5891 12.0582 60.7192 11.6751C59.8494 11.2816 59.1607 10.7949 58.6533 10.2149C58.1562 9.62467 57.8041 8.99298 57.597 8.31987C57.4003 7.6364 57.3019 6.99953 57.3019 6.40926ZM64.0278 10.3547C64.556 10.3547 65.0893 10.2926 65.6278 10.1683C66.1663 10.0441 66.6478 9.82661 67.0724 9.51594C67.5073 9.20527 67.8594 8.79105 68.1287 8.27327C68.4083 7.74513 68.5481 7.08237 68.5481 6.28499C68.5481 5.60152 68.4341 5.01125 68.2063 4.51419C67.9785 4.01712 67.6626 3.60289 67.2588 3.27151C66.8549 2.94014 66.3734 2.69678 65.8142 2.54144C65.2653 2.37575 64.6699 2.29291 64.0278 2.29291C63.3858 2.29291 62.7852 2.37575 62.226 2.54144C61.6771 2.69678 61.2008 2.94014 60.7969 3.27151C60.393 3.60289 60.0772 4.01712 59.8494 4.51419C59.6215 5.01125 59.5076 5.60152 59.5076 6.28499C59.5076 7.08237 59.6422 7.74513 59.9115 8.27327C60.1911 8.79105 60.5432 9.20527 60.9678 9.51594C61.4027 9.82661 61.8894 10.0441 62.4279 10.1683C62.9664 10.2926 63.4997 10.3547 64.0278 10.3547ZM71.6599 0.677437H73.8657L76.0404 8.44413H76.0714L78.2306 0.677437H80.3431L82.5333 8.4286H82.5644L84.7235 0.677437H86.8827L83.5896 11.9702H81.4771L79.3334 3.95498H79.3024L77.1432 11.9702H74.9841L71.6599 0.677437ZM92.5303 2.57251H87.4819V0.677437H99.7844V2.57251H94.736V11.9702H92.5303V2.57251ZM101.431 0.677437H103.637V5.15105H111.217V0.677437H113.423V11.9702H111.217V7.10826H103.637V11.9702H101.431V0.677437ZM30.4238 14.6774H40.8156V16.5725H32.6295V19.1977H39.6661V21.0927H32.6295V25.9702H30.4238V14.6774ZM41.7836 20.4093C41.7836 19.6326 41.8976 18.887 42.1254 18.1725C42.3636 17.4476 42.7467 16.8055 43.2749 16.2463C43.8133 15.6871 44.5072 15.2418 45.3563 14.9104C46.2158 14.5687 47.2669 14.3978 48.5096 14.3978C49.7523 14.3978 50.7982 14.5687 51.6474 14.9104C52.5069 15.2418 53.2007 15.6871 53.7288 16.2463C54.2673 16.8055 54.6505 17.4476 54.8783 18.1725C55.1165 18.887 55.2356 19.6326 55.2356 20.4093C55.2356 20.9995 55.132 21.6364 54.9249 22.3199C54.7281 22.993 54.3761 23.6247 53.8686 24.2149C53.3716 24.7949 52.6881 25.2816 51.8182 25.6751C50.9484 26.0582 49.8455 26.2498 48.5096 26.2498C47.1737 26.2498 46.0709 26.0582 45.201 25.6751C44.3311 25.2816 43.6425 24.7949 43.1351 24.2149C42.638 23.6247 42.2859 22.993 42.0788 22.3199C41.882 21.6364 41.7836 20.9995 41.7836 20.4093ZM48.5096 24.3547C49.0377 24.3547 49.5711 24.2926 50.1095 24.1683C50.648 24.0441 51.1296 23.8266 51.5542 23.5159C51.9891 23.2053 52.3412 22.791 52.6104 22.2733C52.89 21.7451 53.0298 21.0824 53.0298 20.285C53.0298 19.6015 52.9159 19.0113 52.6881 18.5142C52.4603 18.0171 52.1444 17.6029 51.7406 17.2715C51.3367 16.9401 50.8552 16.6968 50.2959 16.5414C49.7471 16.3758 49.1517 16.2929 48.5096 16.2929C47.8676 16.2929 47.2669 16.3758 46.7077 16.5414C46.1589 16.6968 45.6825 16.9401 45.2787 17.2715C44.8748 17.6029 44.5589 18.0171 44.3311 18.5142C44.1033 19.0113 43.9894 19.6015 43.9894 20.285C43.9894 21.0824 44.124 21.7451 44.3933 22.2733C44.6729 22.791 45.025 23.2053 45.4495 23.5159C45.8845 23.8266 46.3712 24.0441 46.9097 24.1683C47.4482 24.2926 47.9815 24.3547 48.5096 24.3547ZM57.1825 14.6774H63.9706C64.6333 14.6774 65.2443 14.724 65.8035 14.8172C66.3731 14.9104 66.8598 15.0813 67.2636 15.3298C67.6779 15.5784 67.9989 15.9201 68.2267 16.355C68.4545 16.79 68.5684 17.3544 68.5684 18.0482C68.5684 18.566 68.4804 19.0268 68.3044 19.4307C68.1387 19.8345 67.9109 20.1763 67.6209 20.4559C67.3309 20.7355 66.9944 20.9529 66.6112 21.1083C66.2281 21.2636 65.8294 21.3516 65.4152 21.3723L68.8791 25.9702H66.1608L62.8832 21.5277H59.3882V25.9702H57.1825V14.6774ZM63.6444 19.6947C64.0896 19.6947 64.4832 19.674 64.8249 19.6326C65.1666 19.5912 65.4514 19.5135 65.6792 19.3996C65.907 19.2857 66.0779 19.1252 66.1918 18.9181C66.3057 18.7006 66.3627 18.4262 66.3627 18.0948C66.3627 17.7634 66.3057 17.4942 66.1918 17.287C66.0779 17.0799 65.907 16.9194 65.6792 16.8055C65.4514 16.6916 65.1666 16.6139 64.8249 16.5725C64.4832 16.5311 64.0896 16.5104 63.6444 16.5104H59.3882V19.6947H63.6444ZM71.1264 14.6774H73.3321V25.9702H71.1264V14.6774ZM80.4935 14.6774H83.0099L88.4932 25.9702H86.1632L84.9826 23.3761H78.4741L77.2781 25.9702H74.9325L80.4935 14.6774ZM84.1128 21.4811L81.7517 16.4482L79.3906 21.4811H84.1128Z" fill="white"/>
</g>
<defs>
<clipPath id="clip0_1057_2383">
<rect width="113.001" height="26.384" fill="white"/>
</clipPath>
</defs>
</svg>
